HIERARCHY
ROOT Hips
{
	OFFSET 0.000000 0.000000 0.000000
	CHANNELS 6 Xposition Yposition Zposition Xrotation Yrotation Zrotation
	JOINT Chest
	{
		OFFSET 0.000000 0.009282 11.569106
		CHANNELS 3 Xrotation Yrotation Zrotation
		JOINT Chest2
		{
			OFFSET 0.000000 -0.016863 9.269641
			CHANNELS 3 Xrotation Yrotation Zrotation
			JOINT Chest3
			{
				OFFSET 0.000000 0.000000 8.374491
				CHANNELS 3 Xrotation Yrotation Zrotation
				JOINT Chest4
				{
					OFFSET 0.000000 0.000000 8.374493
					CHANNELS 3 Xrotation Yrotation Zrotation
					JOINT Neck
					{
						OFFSET 0.000000 -0.000001 12.152554
						CHANNELS 3 Xrotation Yrotation Zrotation
						JOINT Head
						{
							OFFSET 0.000000 -0.040100 7.802319
							CHANNELS 3 Xrotation Yrotation Zrotation
							End Site
							{
								OFFSET 0.000000 -0.020946 14.853096
							}
						}
					}
					JOINT RightCollar
					{
						OFFSET -2.894404 0.000000 6.791374
						CHANNELS 3 Xrotation Yrotation Zrotation
						JOINT RightShoulder
						{
							OFFSET -13.574684 0.000000 0.000000
							CHANNELS 3 Xrotation Yrotation Zrotation
							JOINT RightElbow
							{
								OFFSET -23.923903 0.000000 0.000000
								CHANNELS 3 Xrotation Yrotation Zrotation
								JOINT RightWrist
								{
									OFFSET -19.846718 -0.012765 0.000000
									CHANNELS 3 Xrotation Yrotation Zrotation
									End Site
									{
										OFFSET -14.973145 0.000000 0.000000
									}
								}
							}
						}
					}
					JOINT LeftCollar
					{
						OFFSET 2.894404 0.000000 6.791374
						CHANNELS 3 Xrotation Yrotation Zrotation
						JOINT LeftShoulder
						{
							OFFSET 13.574684 0.000000 0.000000
							CHANNELS 3 Xrotation Yrotation Zrotation
							JOINT LeftElbow
							{
								OFFSET 23.923903 0.000000 0.000000
								CHANNELS 3 Xrotation Yrotation Zrotation
								JOINT LeftWrist
								{
									OFFSET 19.846718 -0.012765 0.000000
									CHANNELS 3 Xrotation Yrotation Zrotation
									End Site
									{
										OFFSET 14.973145 0.000000 0.000000
									}
								}
							}
						}
					}
				}
			}
		}
	}
	JOINT RightHip
	{
		OFFSET -9.469263 -0.004642 0.045487
		CHANNELS 3 Xrotation Yrotation Zrotation
		JOINT RightKnee
		{
			OFFSET 0.000000 -0.002666 -40.478676
			CHANNELS 3 Xrotation Yrotation Zrotation
			JOINT RightAnkle
			{
				OFFSET 0.000000 -0.049110 -35.224068
				CHANNELS 3 Xrotation Yrotation Zrotation
				JOINT RightToe
				{
					OFFSET 0.000000 -12.539530 -6.151390
					CHANNELS 3 Xrotation Yrotation Zrotation
					End Site
					{
						OFFSET 0.000000 -5.044995 -1.291870
					}
				}
			}
		}
	}
	JOINT LeftHip
	{
		OFFSET 9.469263 -0.004642 0.045487
		CHANNELS 3 Xrotation Yrotation Zrotation
		JOINT LeftKnee
		{
			OFFSET 0.000000 -0.002666 -40.478676
			CHANNELS 3 Xrotation Yrotation Zrotation
			JOINT LeftAnkle
			{
				OFFSET 0.000000 -0.049110 -35.224068
				CHANNELS 3 Xrotation Yrotation Zrotation
				JOINT LeftToe
				{
					OFFSET 0.000000 -12.539530 -6.151390
					CHANNELS 3 Xrotation Yrotation Zrotation
					End Site
					{
						OFFSET 0.000000 -5.044995 -1.291870
					}
				}
			}
		}
	}
}
MOTION
Frames: 17
Frame Time: 0.016667
-10.722507 -5.664920 82.746521 2.794140 5.848182 -116.898087 1.177128 2.181106 0.637755 0.496394 0.903528 0.323391 0.496393 0.903530 0.323388 0.372766 0.677386 0.243272 17.837324 -2.889982 -5.909745 -3.094392 -3.288570 -11.757272 -7.577689 -8.069550 -5.145632 -48.541844 -45.483749 -1.230814 -42.829586 9.254047 -6.857938 -0.785297 34.485256 -4.508954 3.730591 9.783668 -11.517938 -56.971656 42.339947 16.048590 -35.941856 4.537267 -4.540722 -4.365605 -13.718968 0.773796 1.394505 1.707100 7.830641 15.187511 -2.114738 5.635612 -8.896726 2.076575 -3.637171 0.364393 0.611099 -0.026694 8.150997 2.791061 2.013638 6.271005 0.605003 8.362738 -8.776673 -3.628655 2.832961 0.074535 0.090524 0.003450 
-10.672046 -5.598628 82.756081 2.912887 5.752715 -117.473216 1.236056 2.269337 0.767357 0.515856 0.940216 0.392517 0.515856 0.940217 0.392514 0.387487 0.704832 0.295180 17.816916 -2.896388 -6.045534 -3.127874 -3.253286 -12.007531 -8.469216 -7.963861 -5.209699 -48.589443 -45.083828 0.619733 -45.040713 9.126534 -5.417977 -4.592187 38.733853 -0.611258 3.283933 9.709484 -11.623209 -57.895197 41.287968 16.521352 -38.326831 2.981828 -2.674190 -5.249587 -12.426092 3.847775 1.505420 1.537401 7.977568 14.716454 -1.978297 5.769270 -8.689438 1.796327 -3.496025 0.368987 0.682908 -0.011624 8.359883 2.667951 2.351213 5.819545 0.637465 8.537508 -8.580449 -3.636167 2.854320 0.071278 0.096565 0.003700 
-10.618386 -5.531082 82.763176 3.020978 5.622087 -118.073207 1.269545 2.354751 0.916224 0.528125 0.970787 0.466435 0.528125 0.970787 0.466434 0.396825 0.727690 0.350661 17.799521 -2.891080 -6.152405 -3.155534 -3.206530 -12.200988 -9.477788 -7.900441 -5.258860 -48.142459 -44.590518 2.661013 -46.251121 8.939213 -4.128044 -6.745400 41.124426 1.763699 2.901761 9.677038 -11.797920 -58.819007 40.186125 17.139636 -39.977459 1.633611 -1.405073 -6.269980 -12.592317 4.409095 1.601991 1.376440 8.121568 14.197093 -1.852451 5.908123 -8.477049 1.428028 -3.345077 0.382164 0.807646 0.002121 8.546474 2.539776 2.701959 5.345972 0.670133 8.681282 -8.371391 -3.649298 2.925356 0.069047 0.102993 0.003963 
-10.566280 -5.472533 82.766670 3.096064 5.487152 -118.680411 1.292367 2.469243 1.096574 0.529499 1.002925 0.558560 0.529499 1.002926 0.558561 0.398031 0.751712 0.419780 17.785135 -2.894949 -6.247508 -3.178863 -3.180647 -12.376030 -10.540940 -7.797002 -5.354697 -47.182332 -43.917324 4.822955 -47.068633 8.348883 -3.013183 -7.385105 42.510186 2.910846 2.602564 9.656322 -11.897851 -59.868200 39.157656 17.949104 -41.235583 0.963516 -0.935250 -7.701888 -14.728586 3.531115 1.683920 1.260706 8.237530 13.670945 -1.732193 6.094314 -8.263841 1.001519 -3.257677 0.385737 0.948222 0.014115 8.719916 2.446845 3.011266 4.864648 0.711920 8.824494 -8.165260 -3.685877 3.029809 0.074703 0.111826 0.003827 
-10.518260 -5.411347 82.766396 3.182646 5.325327 -119.291194 1.270110 2.582274 1.297008 0.509386 1.050844 0.663279 0.509386 1.050845 0.663279 0.383170 0.787582 0.498322 17.793876 -2.925343 -6.314723 -3.163084 -3.214405 -12.508674 -11.391352 -7.689920 -5.450765 -46.257695 -43.247904 6.812369 -48.539156 7.295679 -1.652825 -8.956460 43.998573 4.781718 2.288772 9.664827 -11.739741 -60.642087 38.279618 18.663758 -42.500394 1.108379 -1.298951 -10.305010 -18.655424 2.241493 1.748578 1.110432 8.332515 13.143502 -1.586670 6.270884 -8.070095 0.566955 -3.074024 0.414869 1.053630 0.016229 8.874237 2.338044 3.272737 4.396378 0.746065 9.040621 -7.963915 -3.716996 3.125622 0.074968 0.122505 -0.000838 
-10.474436 -5.347754 82.769402 3.269016 5.160333 -119.881541 1.266636 2.680782 1.498847 0.495175 1.102515 0.772013 0.495175 1.102514 0.772015 0.372763 0.826262 0.579890 17.778595 -2.957039 -6.361663 -3.192782 -3.255066 -12.605490 -11.989697 -7.572441 -5.452223 -45.852443 -42.701161 8.488795 -50.934657 5.939881 0.150969 -12.415948 46.126883 8.410482 1.814060 9.758629 -11.432377 -61.061434 37.428873 19.203671 -43.862946 1.820771 -2.205058 -13.786847 -22.751358 0.900279 1.815074 0.951366 8.334136 12.646032 -1.429531 6.493457 -7.907775 0.225246 -2.854728 0.457780 1.067825 0.023171 9.011294 2.230872 3.493312 3.968117 0.768902 9.316469 -7.781023 -3.736313 3.195738 0.070168 0.132808 -0.008123 
-10.439306 -5.279222 82.776871 3.335316 5.010012 -120.431480 1.251376 2.779044 1.678688 0.473059 1.152878 0.875131 0.473059 1.152879 0.875130 0.356435 0.863985 0.657219 17.766941 -2.969026 -6.388391 -3.214545 -3.266899 -12.658618 -12.520140 -7.446372 -5.399127 -45.737979 -42.280100 9.975389 -53.358596 4.461604 2.147052 -16.947731 48.546498 13.225494 1.426428 9.912641 -11.335329 -61.464340 36.279124 19.698715 -45.513645 2.874155 -3.328330 -17.444097 -25.906569 -0.368354 1.871074 0.803278 8.302253 12.195615 -1.289170 6.731087 -7.746659 0.017069 -2.610594 0.489712 0.991270 0.027688 9.142939 2.140020 3.690636 3.571988 0.788579 9.567874 -7.616100 -3.746757 3.260864 0.063981 0.137338 -0.012933 
-10.402866 -5.192240 82.786148 3.379280 4.844977 -120.941723 1.255177 2.872416 1.869438 0.465450 1.203578 0.979980 0.465449 1.203578 0.979978 0.351005 0.901941 0.735872 17.720250 -2.973671 -6.415961 -3.300447 -3.261798 -12.711762 -13.188563 -7.332296 -5.358063 -45.837328 -41.801762 11.286696 -54.988914 2.903922 3.986377 -20.873283 50.851407 17.884516 1.041276 10.028551 -11.414604 -62.034899 34.973847 20.307775 -47.603236 4.380344 -4.601668 -20.593968 -28.433937 -1.408917 1.892670 0.622183 8.309752 11.796418 -1.100013 6.955845 -7.594786 -0.093527 -2.360890 0.507657 0.836708 0.040904 9.246538 2.039171 3.914227 3.197516 0.814658 9.685818 -7.455998 -3.754783 3.427107 0.056237 0.136221 -0.015385 
-10.354440 -5.099909 82.796272 3.375609 4.665436 -121.406995 1.248977 2.965437 2.059935 0.469351 1.251665 1.071606 0.469351 1.251664 1.071607 0.354196 0.937930 0.804639 17.650706 -2.956911 -6.434022 -3.426832 -3.218741 -12.740881 -13.873643 -7.257875 -5.189556 -46.123728 -41.165519 12.377163 -55.764024 1.277692 5.592851 -23.464801 52.581299 21.503794 0.618781 10.022878 -11.331649 -62.846299 33.859556 21.218881 -49.873830 6.435378 -6.141625 -22.970305 -30.891614 -2.237554 1.854795 0.414197 8.448528 11.467374 -0.874628 7.124250 -7.457434 -0.106338 -2.253209 0.504357 0.632199 0.050375 9.293090 1.946341 4.127022 2.850230 0.835918 9.733674 -7.286668 -3.744918 3.552990 0.042335 0.132886 -0.019042 
-10.300218 -5.013540 82.809364 3.340014 4.487462 -121.791043 1.219847 3.060336 2.220781 0.471939 1.299495 1.142149 0.471939 1.299493 1.142147 0.356369 0.973743 0.857579 17.589728 -2.921887 -6.436147 -3.536076 -3.148575 -12.734344 -14.453227 -7.191166 -5.009310 -46.369031 -40.506696 13.424660 -56.225875 -0.553453 7.122768 -25.180594 53.821484 24.206732 0.197820 9.984625 -11.126105 -63.771045 32.830411 22.303238 -51.742884 8.845022 -7.804448 -24.784200 -33.306605 -3.078537 1.754599 0.210519 8.731903 11.238140 -0.689198 7.120733 -7.281220 0.012866 -2.244298 0.435857 0.376857 0.034409 9.290698 1.890931 4.265912 2.543474 0.827613 9.814185 -7.107497 -3.723165 3.698334 0.014964 0.128117 -0.021209 
-10.197758 -4.970286 82.825424 3.269737 4.169022 -122.205280 1.016835 3.106227 2.472841 0.467082 1.351561 1.189623 0.467082 1.351561 1.189620 0.352928 1.012767 0.893206 17.551848 -2.879350 -6.419801 -3.602521 -3.073111 -12.690933 -15.022376 -7.096295 -4.926866 -46.314618 -39.943967 14.460170 -56.950578 -2.796931 8.784924 -26.968461 54.724985 26.687296 -0.054587 9.991089 -11.090843 -64.711309 31.582160 23.263906 -52.674767 11.125133 -9.378856 -26.159959 -35.458551 -3.998090 1.459578 0.006274 9.166813 11.093761 -0.630362 6.776071 -6.878289 0.502267 -2.522935 0.181610 -0.108261 -0.003418 9.084287 1.810966 4.454249 2.283483 0.785275 9.949431 -6.921274 -3.690546 3.783544 -0.000987 0.128009 -0.023634 
-10.096761 -4.978695 82.841331 3.219825 4.046837 -122.416087 0.964392 3.226903 2.587685 0.458759 1.398131 1.224504 0.458757 1.398134 1.224509 0.346855 1.047688 0.919386 17.532064 -2.826014 -6.404311 -3.634334 -2.979429 -12.644824 -15.629467 -6.976955 -4.928307 -45.994682 -39.480273 15.523330 -58.051103 -5.420149 10.611367 -29.130555 55.433255 29.373389 -0.211620 10.011809 -11.042693 -65.287538 30.415307 23.857154 -52.811610 13.208489 -10.913209 -26.967848 -37.619405 -4.881376 1.411005 0.080071 9.334028 11.037851 -0.829975 5.710994 -6.669452 0.943667 -2.432503 -0.021924 -0.447912 -0.023084 8.999129 1.823297 4.495666 2.065537 0.721099 10.105687 -6.730842 -3.676997 3.745794 -0.012228 0.126599 -0.013928 
-9.951242 -5.014847 82.848984 3.153292 4.002087 -122.559658 0.973301 3.395635 2.686494 0.453201 1.431519 1.260366 0.453202 1.431519 1.260362 0.342838 1.072710 0.946283 17.509822 -2.763696 -6.402653 -3.669213 -2.864551 -12.620884 -16.123925 -6.859440 -4.887389 -45.871113 -39.037659 16.530953 -58.944355 -8.113929 12.491958 -31.285593 56.082499 31.979356 -0.330411 10.011556 -10.981842 -65.431122 29.449016 24.222246 -52.681027 15.244164 -12.495919 -27.019074 -39.767663 -5.575714 1.463645 0.430849 9.126322 11.037464 -1.099226 4.841406 -6.673792 1.027684 -2.209659 -0.155839 -0.497878 -0.056742 8.894135 1.868946 4.618705 1.922983 0.668142 10.270191 -6.566462 -3.656461 3.572104 -0.004603 0.121041 0.002255 
-9.745939 -5.007523 82.855576 3.156934 3.864511 -122.740849 0.941023 3.421433 2.839131 0.450726 1.446162 1.294726 0.450726 1.446163 1.294722 0.341093 1.083673 0.972062 17.484162 -2.675425 -6.409564 -3.707434 -2.699249 -12.603682 -16.570742 -6.721133 -4.766031 -45.936690 -38.611244 17.409958 -59.233272 -10.734483 14.374029 -32.811669 56.730680 34.018713 -0.597569 10.091680 -10.919195 -65.150142 28.575070 24.547464 -52.445789 17.220683 -14.136202 -26.742887 -41.396834 -5.946341 1.644688 0.608512 8.500800 10.683239 -1.165473 4.828025 -6.540137 0.957132 -2.407989 -0.225357 -0.417123 -0.004414 8.727777 1.743406 4.973194 1.804712 0.652556 10.229591 -6.442546 -3.623874 3.448496 0.050913 0.118512 0.011224 
-9.547971 -4.961918 82.866653 3.154294 3.743283 -122.884160 0.936356 3.435495 2.978277 0.448933 1.457690 1.336420 0.448932 1.457691 1.336416 0.339871 1.092294 1.003327 17.455399 -2.581733 -6.425245 -3.750519 -2.520858 -12.600618 -16.978377 -6.647486 -4.547133 -46.164255 -38.039765 18.127047 -58.923407 -13.287103 16.234217 -33.695956 57.448209 35.578630 -0.900373 10.127694 -10.795249 -64.757146 27.876625 24.892534 -52.225006 19.158819 -15.820158 -26.154900 -42.567327 -5.870891 1.902020 0.631715 7.716599 10.195478 -1.035688 5.119261 -6.415865 0.702134 -2.557384 -0.206143 -0.196909 0.017296 8.591876 1.606005 5.364780 1.680461 0.634782 10.010546 -6.305496 -3.584343 3.438293 0.093087 0.119918 0.014610 
-9.378998 -4.890134 82.882095 3.143645 3.649972 -122.996284 0.945715 3.458857 3.110379 0.445066 1.475575 1.387326 0.445066 1.475576 1.387320 0.337134 1.105678 1.041503 17.436428 -2.495603 -6.444072 -3.776101 -2.356061 -12.605680 -17.418569 -6.602587 -4.329027 -46.370072 -37.444501 18.735955 -58.092951 -15.675544 18.151311 -34.230429 58.200452 36.897140 -1.072210 10.115737 -10.722559 -64.570805 27.203026 25.254870 -51.916787 20.998274 -17.474462 -25.122433 -43.512751 -5.536252 2.072528 0.562296 7.178896 9.854176 -0.853941 5.269766 -6.285117 0.392095 -2.476588 -0.219385 0.030235 0.017363 8.488407 1.495318 5.660426 1.576332 0.583642 9.873455 -6.177355 -3.513692 3.396387 0.113283 0.124890 0.011894 
-9.236777 -4.803930 82.900101 3.141896 3.542981 -123.081197 0.949229 3.466268 3.247405 0.444161 1.503009 1.443458 0.444160 1.503011 1.443457 0.336656 1.126217 1.083616 17.416945 -2.429296 -6.461478 -3.804726 -2.227757 -12.614974 -17.924281 -6.590044 -4.118088 -46.486278 -36.862138 19.312893 -56.892395 -17.881545 20.209896 -34.511764 58.958446 37.950850 -1.182513 10.110635 -10.725747 -64.654578 26.379929 25.582701 -51.237685 22.582263 -18.952588 -23.903309 -44.465303 -5.417939 2.206614 0.395128 7.120584 9.479356 -0.677271 5.238277 -6.054421 0.170783 -2.521888 -0.242403 0.160082 0.009268 8.384802 1.372037 5.802996 1.493574 0.526136 9.805198 -6.031713 -3.446080 3.416651 0.092668 0.136065 0.005827 
